<svg data-v-423bf9ae="" xmlns="http://www.w3.org/2000/svg" viewBox="0 0 291.533379991303 163" class="iconAbove"><!----><!----><!----><g data-v-423bf9ae="" id="17aeead6-e1eb-4de5-b6e5-6cf5f822ba06" fill="#ffffff" transform="matrix(5.644402573287807,0,0,5.644402573287807,-0.620887493107972,103.39510552675621)"><path d="M1.12 10.50L1.44 10.50L1.44 5.39L5.05 5.39L5.05 10.50L5.38 10.50L5.38 0.04L5.05 0.04L5.05 5.10L1.44 5.10L1.44 0.06L0.11 0.06L0.11 0.31L1.12 0.34ZM11.87 9.04L11.87 1.33L10.47-0.07L8.74-0.07L7.34 1.33L7.34 9.04L8.74 10.54L10.47 10.54ZM11.56 8.92L10.33 10.23L8.86 10.23L7.64 8.92L7.64 1.47L8.86 0.24L10.35 0.24L11.56 1.47ZM13.89 10.50L14.21 10.50L14.21 0.35L14.46 0.35L17.88 10.50L18.44 10.50L18.44 0.04L18.13 0.04L18.14 10.26L18.12 10.26L14.70 0.04L13.89 0.04ZM24.09 0.34L24.09 0.03L20.44 0.03L20.44 10.50L24.23 10.50L24.23 10.18L20.76 10.18L20.76 5.45L23.79 5.45L23.79 5.15L20.76 5.15L20.76 0.34ZM30.51 0L30.17 0L28.20 5.78L27.99 5.78L26.01 0L25.68 0L27.76 6.10L27.93 6.10L27.93 10.50L28.08 10.50L28.25 10.50L28.25 6.10L28.42 6.10ZM31.18 0.04L31.18 0.32L32.16 0.32L32.16 10.50L35.08 10.50L36.50 9.09L36.50 1.46L35.08 0.04ZM34.96 0.35L36.19 1.58L36.19 8.95L34.96 10.18L32.48 10.18L32.48 0.35ZM42.15 0.34L42.15 0.03L38.50 0.03L38.50 10.50L42.29 10.50L42.29 10.18L38.82 10.18L38.82 5.45L41.85 5.45L41.85 5.15L38.82 5.15L38.82 0.34ZM44.21 0L43.89 0L45.33 10.56L46.35 10.56L47.70 0.81L47.87 0.81L49.27 10.56L50.27 10.56L51.76 0L51.45 0L49.99 10.30L49.53 10.30L48.15 0.56L47.42 0.56L46.06 10.30L45.60 10.30Z"></path></g><!----><g data-v-423bf9ae="" id="33407e93-c031-407a-b701-db6f49650375" transform="matrix(1.182743950564999,0,0,1.182743950564999,87.49746777130247,-13.18429418698559)" stroke="none" fill="#99472D"><path d="M22.022 63.02a3.79 3.79 0 0 1-5.096-1.645L9.05 45.98a3.79 3.79 0 0 1 1.646-5.095 3.792 3.792 0 0 1 5.096 1.646l7.877 15.395a3.789 3.789 0 0 1-1.647 5.094zM11.157 41.785a2.778 2.778 0 0 0-1.208 3.736l7.876 15.395a2.78 2.78 0 0 0 3.738 1.205 2.78 2.78 0 0 0 1.206-3.736L14.893 42.99a2.777 2.777 0 0 0-3.736-1.205zM30.812 61.357a3.789 3.789 0 0 1-5.095-1.645L15.54 39.825a3.792 3.792 0 0 1 1.646-5.096 3.79 3.79 0 0 1 5.096 1.646l10.176 19.889a3.787 3.787 0 0 1-1.646 5.093zM17.646 35.628a2.78 2.78 0 0 0-1.207 3.736l10.177 19.887a2.78 2.78 0 0 0 3.736 1.209 2.78 2.78 0 0 0 1.207-3.736L21.384 36.835a2.78 2.78 0 0 0-3.738-1.207zM39.603 59.695a3.79 3.79 0 0 1-5.096-1.645L22.03 33.668a3.793 3.793 0 0 1 1.646-5.097 3.792 3.792 0 0 1 5.096 1.646L41.248 54.6a3.79 3.79 0 0 1-1.645 5.095zM24.138 29.472a2.778 2.778 0 0 0-1.207 3.736l12.475 24.383a2.778 2.778 0 0 0 3.737 1.205 2.778 2.778 0 0 0 1.206-3.736L27.873 30.679a2.778 2.778 0 0 0-3.735-1.207zM52.583 47.384a3.792 3.792 0 0 1-5.096-1.646L39.61 30.344a3.793 3.793 0 0 1 1.646-5.097 3.794 3.794 0 0 1 5.096 1.646l7.876 15.395a3.79 3.79 0 0 1-1.645 5.096zM41.716 26.148a2.78 2.78 0 0 0-1.206 3.736l7.877 15.395a2.78 2.78 0 0 0 3.736 1.207 2.78 2.78 0 0 0 1.208-3.736l-7.877-15.396a2.781 2.781 0 0 0-3.738-1.206zM46.093 53.541a3.793 3.793 0 0 1-5.096-1.646L30.821 32.006a3.792 3.792 0 0 1 1.646-5.097 3.793 3.793 0 0 1 5.095 1.646L47.74 48.444a3.795 3.795 0 0 1-1.647 5.097zM32.927 27.81a2.779 2.779 0 0 0-1.207 3.736l10.176 19.889a2.782 2.782 0 0 0 3.736 1.207 2.781 2.781 0 0 0 1.208-3.737L36.663 29.017a2.778 2.778 0 0 0-3.736-1.207zM89.555 18.234L52.704 37.09l-3.028-5.917 36.853-18.856a3.327 3.327 0 0 1 4.472 1.444 3.326 3.326 0 0 1-1.446 4.473zM53.142 35.732l35.954-18.396a2.317 2.317 0 0 0 1.006-3.113 2.315 2.315 0 0 0-3.114-1.006L51.034 31.612l2.108 4.12z"></path><g><path d="M26.872 88.047c-4.268 0-7.74-3.473-7.74-7.74-.023-.229-.537-6.758 7.385-14.662l.355-.354.357.354c7.922 7.904 7.408 14.434 7.382 14.709.003 4.22-3.469 7.693-7.739 7.693zm0-21.326c-7.216 7.41-6.738 13.477-6.732 13.539.002 3.758 3.021 6.777 6.732 6.777a6.739 6.739 0 0 0 6.732-6.73c.007-.106.454-6.207-6.732-13.586z"></path></g><g><path d="M21.403 79.318s.02.066.054.191c.036.121.068.314.151.529l.125.355c.061.125.115.26.177.404.138.283.316.584.522.891.225.301.48.609.789.887.297.291.66.535 1.037.762.385.223.811.383 1.247.514.224.051.446.104.677.127.113.02.227.039.344.037l.174.006.086.004.043.002.022.004h.016c-.015 0 .042 0-.032.002a5.8 5.8 0 0 0 1.404-.184c.437-.131.863-.289 1.246-.514.377-.227.74-.471 1.037-.762.31-.277.563-.584.789-.885.207-.311.385-.609.523-.893.063-.143.116-.277.177-.406l.126-.355c.082-.223.115-.402.151-.525l.053-.191s.013.068.034.195c.012.125.067.316.061.561 0 .123.003.26.004.408-.01.148-.031.309-.051.482-.023.172-.072.352-.112.545-.046.193-.13.383-.2.59a5.38 5.38 0 0 1-.705 1.236c-.301.412-.701.785-1.152 1.125-.456.336-.988.6-1.555.795-.547.189-1.271.277-1.754.287h-.067l-.029-.002-.057-.002-.115-.006-.227-.016c-.153-.002-.304-.029-.454-.053-.303-.035-.593-.127-.881-.211a5.785 5.785 0 0 1-1.554-.795c-.453-.338-.852-.713-1.152-1.125-.318-.4-.533-.834-.706-1.234-.07-.207-.154-.396-.2-.59-.039-.195-.088-.375-.111-.547-.02-.174-.042-.334-.052-.48l.003-.414c-.008-.246.05-.428.061-.555l.033-.194z"></path></g></g><!----></svg>